<svg xmlns="http://www.w3.org/2000/svg">
  <style>:root svg:not(:target) { display: none }</style>

  <svg width="26" height="26" viewBox="0 0 26 26" id="burger-closed" fill="none"
    xmlns="http://www.w3.org/2000/svg">
    <path d="M0 3.54541H26V5.71534H0V3.54541Z" fill="white" />
    <path d="M0 20.2846H26V22.4545H0V20.2846Z" fill="white" />
    <path d="M0 11.915H16.64V14.0849H0V11.915Z" fill="white" />
  </svg>

  <svg width="26" height="26" viewBox="0 0 26 26" id="burger-opened" fill="none"
    xmlns="http://www.w3.org/2000/svg">
    <path
      d="M2.36328 2.36365L12.9996 13M23.636 23.6364L12.9996 13M12.9996 13L23.636 2.36365L2.36328 23.6364"
      stroke="white" stroke-width="2" />
  </svg>

  <svg width="12" height="12" viewBox="0 0 12 12" id="moon" fill="none"
    xmlns="http://www.w3.org/2000/svg">
    <g clip-path="url(#clip0_4981_204)">
      <path
        d="M11.1966 6.75379C11.0851 6.72581 10.9736 6.75379 10.876 6.82374C10.5135 7.13153 10.0953 7.38335 9.6352 7.55123C9.20301 7.71912 8.72901 7.80306 8.22712 7.80306C7.09786 7.80306 6.0662 7.34138 5.32731 6.5999C4.58841 5.85842 4.12835 4.82314 4.12835 3.68994C4.12835 3.21427 4.212 2.75259 4.35141 2.33289C4.50477 1.8852 4.72783 1.47949 5.0206 1.12973C5.14607 0.975839 5.11819 0.751995 4.96483 0.626083C4.86724 0.556132 4.75571 0.528152 4.64418 0.556132C3.45916 0.877907 2.4275 1.59141 1.6886 2.54274C0.977593 3.48008 0.54541 4.64127 0.54541 5.91438C0.54541 7.43931 1.15883 8.82434 2.16261 9.83164C3.16639 10.8389 4.54659 11.4545 6.0662 11.4545C7.34881 11.4545 8.53383 11.0068 9.48184 10.2653C10.4438 9.50986 11.1409 8.43262 11.4336 7.20148C11.5033 6.99163 11.3918 6.79576 11.1966 6.75379ZM9.0636 9.67774C8.255 10.3213 7.22334 10.713 6.09408 10.713C4.76965 10.713 3.57069 10.1674 2.70633 9.30001C1.84196 8.43262 1.29825 7.22946 1.29825 5.90039C1.29825 4.79516 1.66072 3.78787 2.28808 2.97644C2.72027 2.41683 3.26398 1.95515 3.89134 1.63338C3.82164 1.78727 3.75193 1.94116 3.69617 2.10904C3.51493 2.61269 3.43128 3.14432 3.43128 3.70393C3.43128 5.033 3.97499 6.25015 4.83936 7.11754C5.70373 7.98493 6.91663 8.53055 8.24106 8.53055C8.8266 8.53055 9.38425 8.43262 9.90008 8.23675C10.0813 8.1668 10.2626 8.09685 10.4299 8.01291C10.0953 8.65646 9.6352 9.23006 9.0636 9.67774Z"
        fill="white" />
    </g>
    <defs>
      <clipPath id="clip0_4981_204">
        <rect width="12" height="12" fill="white" />
      </clipPath>
    </defs>
  </svg>


  <svg width="12" height="12" viewBox="0 0 12 12" id="level" fill="none"
    xmlns="http://www.w3.org/2000/svg">
    <g clip-path="url(#clip0_4981_208)">
      <path d="M10.909 11.4545H8.94536V0.54541H10.909V11.4545Z" stroke="white"
        stroke-miterlimit="16" stroke-linecap="round" />
      <path d="M6.98173 11.4545V3.52062H5.01809L5.0181 11.4545H6.98173Z" stroke="white"
        stroke-miterlimit="16" stroke-linecap="round" />
      <path d="M3.05446 11.4545V6.49582H1.09082V11.4545H3.05446Z" stroke="white"
        stroke-miterlimit="16" stroke-linecap="round" />
    </g>
    <defs>
      <clipPath id="clip0_4981_208">
        <rect width="12" height="12" fill="white" />
      </clipPath>
    </defs>
  </svg>

  <svg width="9" height="12" viewBox="0 0 9 12" id="pin" fill="none"
    xmlns="http://www.w3.org/2000/svg">
    <path
      d="M4.49981 0C2.01874 0 0 1.98191 0 4.41796C0 5.05338 0.132472 5.66006 0.39354 6.2213C1.51862 8.63833 3.67571 11.1902 4.31017 11.9146C4.35771 11.9688 4.42701 12 4.49994 12C4.57287 12 4.64217 11.9688 4.6897 11.9146C5.32392 11.1903 7.48101 8.63857 8.60646 6.2213C8.86765 5.66006 9 5.05338 9 4.41796C8.99975 1.98191 6.98101 0 4.49981 0ZM4.49981 6.71267C3.21099 6.71267 2.16234 5.68315 2.16234 4.41784C2.16234 3.15241 3.21099 2.12289 4.49981 2.12289C5.78864 2.12289 6.83728 3.15241 6.83728 4.41784C6.83741 5.68315 5.78876 6.71267 4.49981 6.71267Z"
      fill="white" />
  </svg>

  <svg width="20" height="20" viewBox="0 0 20 20" id="day" fill="none"
    xmlns="http://www.w3.org/2000/svg">
    <path
      d="M13.545 6.45505C12.6455 5.55558 11.3757 4.97357 10 4.97357C8.62433 4.97357 7.35449 5.52912 6.45502 6.45505C5.55555 7.35451 4.97354 8.62435 4.97354 10C4.97354 11.3757 5.55555 12.6455 6.45502 13.545C7.35449 14.4444 8.62433 15.0265 10 15.0265C11.3757 15.0265 12.6455 14.4709 13.545 13.545C14.4444 12.6455 15.0265 11.3757 15.0265 10C15.0265 8.62435 14.4709 7.35451 13.545 6.45505ZM12.5926 12.5926C11.9312 13.254 11.0053 13.6508 10 13.6508C8.9947 13.6508 8.06878 13.254 7.4074 12.5926C6.74603 11.9312 6.3492 11.0053 6.3492 10C6.3492 8.99472 6.74603 8.0688 7.4074 7.40742C8.06878 6.74605 8.9947 6.34923 10 6.34923C11.0053 6.34923 11.9312 6.74605 12.5926 7.40742C13.254 8.0688 13.6508 8.99472 13.6508 10C13.6508 11.0053 13.254 11.9312 12.5926 12.5926Z"
      fill="white" />
    <path
      d="M19.3122 9.3122H17.2751C16.9048 9.3122 16.5873 9.62966 16.5873 10C16.5873 10.3704 16.9048 10.6879 17.2751 10.6879H19.3122C19.6825 10.6879 20 10.3704 20 10C20 9.62966 19.6825 9.3122 19.3122 9.3122Z"
      fill="white" />
    <path
      d="M9.99999 16.5873C9.62962 16.5873 9.31216 16.9048 9.31216 17.2751V19.3122C9.31216 19.6825 9.62962 20 9.99999 20C10.3704 20 10.6878 19.6825 10.6878 19.3122V17.2751C10.6878 16.9048 10.3704 16.5873 9.99999 16.5873Z"
      fill="white" />
    <path
      d="M17.0635 16.1111L15.6085 14.656C15.3704 14.3915 14.9207 14.3915 14.6561 14.656C14.3916 14.9206 14.3916 15.3439 14.6561 15.6084L16.1111 17.0634C16.3757 17.328 16.799 17.328 17.0635 17.0634C17.3281 16.7989 17.3281 16.3756 17.0635 16.1111Z"
      fill="white" />
    <path
      d="M9.99999 0C9.62962 0 9.31216 0.317459 9.31216 0.687829V2.72486C9.31216 3.09523 9.62962 3.41269 9.99999 3.41269C10.3704 3.41269 10.6878 3.09523 10.6878 2.72486V0.687829C10.6878 0.317459 10.3704 0 9.99999 0Z"
      fill="white" />
    <path
      d="M17.0899 2.93653C16.8254 2.67198 16.4021 2.67198 16.1376 2.93653L14.6825 4.39155C14.418 4.6561 14.418 5.07938 14.6825 5.34393C14.9206 5.60848 15.3704 5.60848 15.6349 5.34393L17.0899 3.88891C17.3545 3.62436 17.3545 3.20108 17.0899 2.93653Z"
      fill="white" />
    <path
      d="M2.72487 9.3122H0.687831C0.31746 9.3122 0 9.62966 0 10C0 10.3704 0.291005 10.6879 0.687831 10.6879H2.72487C3.09524 10.6879 3.4127 10.3704 3.4127 10C3.4127 9.62966 3.09524 9.3122 2.72487 9.3122Z"
      fill="white" />
    <path
      d="M5.31746 14.656C5.07937 14.3915 4.62963 14.3915 4.36508 14.656L2.91005 16.1111C2.6455 16.3756 2.6455 16.7989 2.91005 17.0634C3.1746 17.328 3.59788 17.328 3.86243 17.0634L5.31746 15.6084C5.58201 15.3439 5.58201 14.9206 5.31746 14.656Z"
      fill="white" />
    <path
      d="M5.31746 4.39155L3.86243 2.93653C3.59788 2.67198 3.1746 2.67198 2.91005 2.93653C2.6455 3.20108 2.6455 3.62436 2.91005 3.88891L4.36508 5.34393C4.62963 5.60848 5.05291 5.60848 5.31746 5.34393C5.58201 5.07938 5.58201 4.6561 5.31746 4.39155Z"
      fill="white" />
  </svg>

  <svg width="16" height="16" viewBox="0 0 16 16" id="night" fill="none"
    xmlns="http://www.w3.org/2000/svg">
    <path
      d="M15.6218 9.10563C15.4582 9.06459 15.2946 9.10563 15.1515 9.20822C14.6199 9.65964 14.0065 10.029 13.3317 10.2752C12.6978 10.5214 12.0026 10.6445 11.2665 10.6445C9.61027 10.6445 8.09716 9.96742 7.01345 8.87992C5.92974 7.79241 5.25498 6.27401 5.25498 4.61197C5.25498 3.91433 5.37766 3.2372 5.58213 2.62163C5.80705 1.96503 6.13421 1.36998 6.56361 0.857004C6.74763 0.631295 6.70674 0.302991 6.48182 0.118321C6.33869 0.0157259 6.17511 -0.0253121 6.01153 0.0157259C4.2735 0.487662 2.7604 1.53413 1.67668 2.92942C0.633869 4.30419 0 6.00726 0 7.87449C0 10.1111 0.899685 12.1424 2.3719 13.6198C3.84411 15.0972 5.8684 16 8.09716 16C9.97832 16 11.7163 15.3434 13.1068 14.2559C14.5176 13.1479 15.54 11.5679 15.9694 9.76223C16.0716 9.45445 15.9081 9.16718 15.6218 9.10563ZM12.4933 13.3941C11.3074 14.338 9.79429 14.9125 8.13806 14.9125C6.19556 14.9125 4.43708 14.1123 3.16934 12.8401C1.90161 11.5679 1.10416 9.80327 1.10416 7.85397C1.10416 6.23297 1.63579 4.75561 2.55592 3.56551C3.18979 2.74475 3.98724 2.06762 4.90737 1.59569C4.80513 1.82139 4.7029 2.0471 4.62111 2.29333C4.35529 3.03201 4.23261 3.81173 4.23261 4.63249C4.23261 6.58179 5.03006 8.36695 6.29779 9.63912C7.56553 10.9113 9.34445 11.7115 11.287 11.7115C12.1457 11.7115 12.9636 11.5679 13.7202 11.2806C13.986 11.178 14.2518 11.0754 14.4972 10.9523C14.0065 11.8962 13.3317 12.7375 12.4933 13.3941Z"
      fill="white" />
  </svg>

  <svg width="84" height="16" viewBox="0 0 84 16" id="three-stars" fill="none"
    xmlns="http://www.w3.org/2000/svg">
    <path
      d="M7.63441 11.6911L12.3525 14.3L11.1042 9.37971L15.2688 6.0708L9.77893 5.63889L7.63441 1L5.48992 5.63889L0 6.0708L4.16458 9.37971L2.91634 14.3L7.63441 11.6911Z"
      fill="white" />
    <path
      d="M24.6344 11.6911L29.3525 14.3L28.1042 9.37971L32.2688 6.0708L26.7789 5.63889L24.6344 1L22.4899 5.63889L17 6.0708L21.1646 9.37971L19.9163 14.3L24.6344 11.6911Z"
      fill="white" />
    <path
      d="M41.6344 11.6911L46.3525 14.3L45.1042 9.37971L49.2688 6.0708L43.7789 5.63889L41.6344 1L39.4899 5.63889L34 6.0708L38.1646 9.37971L36.9163 14.3L41.6344 11.6911Z"
      fill="white" />
    <path fill-rule="evenodd" clip-rule="evenodd"
      d="M58.6344 10.5484L61.8153 12.3073L60.976 8.99895L63.6574 6.86844L60.1169 6.58989L58.6344 3.38311L57.152 6.58989L53.6114 6.86844L56.2929 8.99895L55.4536 12.3073L58.6344 10.5484ZM53.9163 14.3L55.1646 9.37971L51 6.0708L56.4899 5.63889L58.6344 1L60.7789 5.63889L66.2688 6.0708L62.1042 9.37971L63.3525 14.3L58.6344 11.6911L53.9163 14.3Z"
      fill="white" />
    <path fill-rule="evenodd" clip-rule="evenodd"
      d="M75.6344 10.5484L78.8153 12.3073L77.976 8.99895L80.6574 6.86844L77.1169 6.58989L75.6344 3.38311L74.152 6.58989L70.6114 6.86844L73.2929 8.99895L72.4536 12.3073L75.6344 10.5484ZM70.9163 14.3L72.1646 9.37971L68 6.0708L73.4899 5.63889L75.6344 1L77.7789 5.63889L83.2688 6.0708L79.1042 9.37971L80.3525 14.3L75.6344 11.6911L70.9163 14.3Z"
      fill="white" />
  </svg>

  <svg width="84" height="16" viewBox="0 0 84 16" id="four-stars" fill="none"
    xmlns="http://www.w3.org/2000/svg">
    <path
      d="M7.63441 11.6911L12.3525 14.3L11.1042 9.37971L15.2688 6.0708L9.77893 5.63889L7.63441 1L5.48992 5.63889L0 6.0708L4.16458 9.37971L2.91634 14.3L7.63441 11.6911Z"
      fill="white" />
    <path
      d="M24.6344 11.6911L29.3525 14.3L28.1042 9.37971L32.2688 6.0708L26.7789 5.63889L24.6344 1L22.4899 5.63889L17 6.0708L21.1646 9.37971L19.9163 14.3L24.6344 11.6911Z"
      fill="white" />
    <path
      d="M41.6344 11.6911L46.3525 14.3L45.1042 9.37971L49.2688 6.0708L43.7789 5.63889L41.6344 1L39.4899 5.63889L34 6.0708L38.1646 9.37971L36.9163 14.3L41.6344 11.6911Z"
      fill="white" />
    <path
      d="M58.6344 11.6911L63.3525 14.3L62.1042 9.37971L66.2688 6.0708L60.7789 5.63889L58.6344 1L56.4899 5.63889L51 6.0708L55.1646 9.37971L53.9163 14.3L58.6344 11.6911Z"
      fill="white" />
    <path fill-rule="evenodd" clip-rule="evenodd"
      d="M75.6344 10.5484L78.8153 12.3073L77.976 8.99895L80.6574 6.86844L77.1169 6.58989L75.6344 3.38311L74.152 6.58989L70.6114 6.86844L73.2929 8.99895L72.4536 12.3073L75.6344 10.5484ZM70.9163 14.3L72.1646 9.37971L68 6.0708L73.4899 5.63889L75.6344 1L77.7789 5.63889L83.2688 6.0708L79.1042 9.37971L80.3525 14.3L75.6344 11.6911L70.9163 14.3Z"
      fill="white" />
  </svg>

  <svg width="84" height="16" viewBox="0 0 84 16" id="five-stars" fill="none"
    xmlns="http://www.w3.org/2000/svg">
    <path
      d="M7.63441 11.6911L12.3525 14.3L11.1042 9.37971L15.2688 6.0708L9.77893 5.63889L7.63441 1L5.48992 5.63889L0 6.0708L4.16458 9.37971L2.91634 14.3L7.63441 11.6911Z"
      fill="white" />
    <path
      d="M24.6344 11.6911L29.3525 14.3L28.1042 9.37971L32.2688 6.0708L26.7789 5.63889L24.6344 1L22.4899 5.63889L17 6.0708L21.1646 9.37971L19.9163 14.3L24.6344 11.6911Z"
      fill="white" />
    <path
      d="M41.6344 11.6911L46.3525 14.3L45.1042 9.37971L49.2688 6.0708L43.7789 5.63889L41.6344 1L39.4899 5.63889L34 6.0708L38.1646 9.37971L36.9163 14.3L41.6344 11.6911Z"
      fill="white" />
    <path
      d="M58.6344 11.6911L63.3525 14.3L62.1042 9.37971L66.2688 6.0708L60.7789 5.63889L58.6344 1L56.4899 5.63889L51 6.0708L55.1646 9.37971L53.9163 14.3L58.6344 11.6911Z"
      fill="white" />
    <path
      d="M75.6344 11.6911L80.3525 14.3L79.1042 9.37971L83.2688 6.0708L77.7789 5.63889L75.6344 1L73.4899 5.63889L68 6.0708L72.1646 9.37971L70.9163 14.3L75.6344 11.6911Z"
      fill="white" />
  </svg>

  <svg width="9" height="14" viewBox="0 0 9 14" id="show-arrow" fill="none"
    xmlns="http://www.w3.org/2000/svg">
    <path d="M1.5 13L7.5 7L1.5 1" stroke="#2D383F" stroke-width="2" />
  </svg>

  <svg width="14" height="8" viewBox="0 0 14 8" id="vk" fill="none"
    xmlns="http://www.w3.org/2000/svg">
    <path
      d="M13.9258 7.22585C13.9088 7.18926 13.893 7.15891 13.8783 7.13459C13.6354 6.69645 13.1712 6.15865 12.4861 5.52106L12.4716 5.50646L12.4643 5.4993L12.457 5.49196H12.4497C12.1387 5.19506 11.9418 4.99543 11.8593 4.89323C11.7084 4.69854 11.6746 4.50147 11.7571 4.30179C11.8154 4.15092 12.0342 3.83232 12.4131 3.34554C12.6125 3.08756 12.7703 2.8808 12.8869 2.72502C13.7276 1.60555 14.0921 0.8902 13.9803 0.578677L13.9369 0.505878C13.9077 0.462051 13.8324 0.421956 13.711 0.385391C13.5894 0.348902 13.434 0.342868 13.2444 0.367185L11.1452 0.381709C11.1111 0.369639 11.0626 0.370764 10.9993 0.385391C10.9361 0.400017 10.9045 0.407356 10.9045 0.407356L10.868 0.425639L10.839 0.447603C10.8147 0.462127 10.788 0.487672 10.7588 0.524187C10.7297 0.560573 10.7055 0.603275 10.6861 0.651935C10.4575 1.24084 10.1977 1.78838 9.90602 2.29452C9.7262 2.59633 9.56107 2.85789 9.41026 3.07935C9.25966 3.30074 9.1333 3.46385 9.03133 3.56841C8.92921 3.67307 8.83705 3.75691 8.75428 3.82025C8.67163 3.88361 8.60855 3.91038 8.56486 3.90059C8.52108 3.8908 8.47985 3.88108 8.44081 3.87136C8.37282 3.82754 8.31813 3.76793 8.2769 3.6925C8.23549 3.61707 8.20761 3.52212 8.19303 3.40775C8.17853 3.2933 8.16995 3.19485 8.1675 3.11208C8.16523 3.02941 8.16628 2.91248 8.17121 2.76161C8.17626 2.61067 8.17853 2.50854 8.17853 2.455C8.17853 2.27002 8.18213 2.06927 8.18936 1.85269C8.19671 1.63611 8.20266 1.46451 8.20764 1.33809C8.21259 1.21154 8.21489 1.07766 8.21489 0.936508C8.21489 0.79536 8.20631 0.684665 8.18936 0.604324C8.17261 0.524084 8.1469 0.446197 8.11302 0.370688C8.07894 0.295256 8.02905 0.236904 7.96359 0.19548C7.898 0.154108 7.81646 0.121275 7.71941 0.0968811C7.46183 0.0385041 7.13384 0.00692482 6.73528 0.00201533C5.83147 -0.00770139 5.25072 0.0507522 4.99317 0.1773C4.89112 0.230767 4.79878 0.303821 4.71621 0.396232C4.62872 0.503346 4.61651 0.5618 4.67968 0.571415C4.97129 0.615166 5.17773 0.719825 5.29923 0.88529L5.34302 0.972971C5.37707 1.03623 5.41108 1.14823 5.44511 1.30881C5.47909 1.46939 5.50103 1.64703 5.51068 1.84162C5.53493 2.19697 5.53493 2.50115 5.51068 2.7542C5.48635 3.00734 5.46337 3.20441 5.44144 3.34556C5.41951 3.48671 5.38672 3.60109 5.34302 3.68866C5.29923 3.77627 5.2701 3.82981 5.2555 3.84925C5.24092 3.86868 5.22877 3.88093 5.21912 3.88573C5.15595 3.90998 5.09026 3.92233 5.02227 3.92233C4.95418 3.92233 4.87162 3.88822 4.77445 3.82004C4.6773 3.75187 4.57648 3.65824 4.47198 3.53898C4.36749 3.41969 4.24964 3.253 4.11838 3.03887C3.98723 2.82475 3.85115 2.57168 3.71023 2.27966L3.59363 2.06789C3.52074 1.93165 3.42117 1.73328 3.29481 1.47295C3.16839 1.21251 3.05664 0.960595 2.95949 0.717242C2.92066 0.615038 2.86232 0.537227 2.78458 0.483683L2.7481 0.461718C2.72385 0.442285 2.68491 0.421649 2.6315 0.399659C2.57801 0.377694 2.5222 0.361943 2.46384 0.352251L0.466599 0.366776C0.262507 0.366776 0.124028 0.413083 0.0511125 0.505571L0.0219309 0.549322C0.00735285 0.57369 0 0.612608 0 0.666178C0 0.719722 0.014578 0.785438 0.0437596 0.863249C0.33532 1.54956 0.652386 2.21144 0.994957 2.84901C1.33753 3.48658 1.63522 4.00016 1.88784 4.38929C2.14052 4.7787 2.39807 5.14622 2.6605 5.49168C2.92293 5.83726 3.09665 6.05872 3.18164 6.15602C3.26673 6.25349 3.33357 6.32637 3.38216 6.37503L3.56442 6.55021C3.68104 6.66704 3.8523 6.80696 4.07828 6.96997C4.3043 7.13309 4.55453 7.29367 4.82908 7.45197C5.10369 7.61002 5.42316 7.739 5.78766 7.83875C6.15211 7.9386 6.50683 7.97867 6.85188 7.95934H7.69016C7.86017 7.94464 7.98897 7.89109 8.07651 7.79868L8.10552 7.76209C8.12502 7.73304 8.14328 7.68791 8.16013 7.62718C8.17718 7.56635 8.18566 7.49933 8.18566 7.42643C8.18068 7.21719 8.19658 7.02861 8.23294 6.86071C8.26927 6.69287 8.31068 6.56632 8.35699 6.48109C8.40328 6.39595 8.45552 6.32409 8.51365 6.26584C8.57191 6.20747 8.61342 6.1721 8.63778 6.15993C8.66198 6.14768 8.68131 6.13937 8.69589 6.13439C8.81251 6.09547 8.94976 6.13316 9.10785 6.24764C9.26581 6.36201 9.41396 6.50324 9.55254 6.67108C9.69105 6.83908 9.85746 7.02756 10.0518 7.2368C10.2463 7.44612 10.4163 7.60171 10.562 7.70407L10.7078 7.79167C10.8051 7.85013 10.9314 7.90367 11.087 7.95233C11.2422 8.00097 11.3782 8.01314 11.495 7.98882L13.361 7.95967C13.5456 7.95967 13.6892 7.92906 13.7911 7.86833C13.8931 7.8075 13.9538 7.74048 13.9733 7.66758C13.9928 7.5946 13.9939 7.51181 13.977 7.41924C13.9597 7.32691 13.9427 7.26234 13.9258 7.22585Z"
      fill="#2D383F" />
  </svg>

  <svg xmlns="http://www.w3.org/2000/svg" width="25" height="25" viewBox="0 0 25 25" id="map" fill="none">
    <g clip-path="url(#clip0_5878_696)">
      <path d="M24.1704 22.2803V6.70123C24.1823 6.44571 23.9848 6.22897 23.7293 6.2171C23.6748 6.21456 23.6204 6.22168 23.5684 6.23812V6.26127L21.4844 6.91426C21.7026 6.33016 21.8321 5.71665 21.8688 5.09423C21.8688 2.28077 19.588 0 16.7745 0C13.9611 0 11.6803 2.28077 11.6803 5.09423C11.7128 5.68754 11.833 6.27279 12.0369 6.8309L8.59135 5.59902C8.55135 5.5941 8.51094 5.5941 8.47094 5.59902H8.43389C8.37837 5.60001 8.32344 5.61101 8.2718 5.63144L1.12598 8.41011C0.961171 8.47281 0.846262 8.62361 0.82959 8.79913V24.3967C0.830342 24.6525 1.03828 24.8592 1.29409 24.8585C1.35065 24.8583 1.40669 24.8478 1.45942 24.8274L8.44315 22.1229L16.4087 24.9756C16.5048 25.0081 16.6089 25.0081 16.7051 24.9756L23.8463 22.7434C24.0469 22.6806 24.18 22.4904 24.1704 22.2803ZM16.7745 0.926224C19.0765 0.926224 20.9425 2.79228 20.9425 5.09423C20.9425 6.905 18.2241 11.9066 16.7745 14.3565C15.325 11.8881 12.6065 6.88184 12.6065 5.09423C12.6065 2.79228 14.4726 0.926224 16.7745 0.926224ZM23.2581 21.9608L17.0246 23.9105V20.3769C17.0246 20.1212 16.8173 19.9138 16.5615 19.9138C16.3058 19.9138 16.0984 20.1212 16.0984 20.3769V23.8781L8.90163 21.3032V18.3392C8.90163 18.0835 8.69427 17.8761 8.43852 17.8761C8.18277 17.8761 7.97541 18.0835 7.97541 18.3392V21.3032L1.75581 23.7252V16.5655L4.04359 15.6393C4.2884 15.5652 4.42675 15.3067 4.35266 15.0618C4.27856 14.817 4.02003 14.6787 3.77521 14.7528C3.74963 14.7605 3.72473 14.7705 3.70083 14.7825L1.75576 15.5652V9.11868L7.97535 6.71049V8.09983C7.97535 8.35558 8.18271 8.56294 8.43846 8.56294C8.69421 8.56294 8.90157 8.35558 8.90157 8.09983V6.69197L12.4536 7.96553C13.5928 10.5687 14.9032 13.0936 16.3762 15.5235C16.5088 15.7422 16.7936 15.8119 17.0123 15.6793C17.076 15.6407 17.1295 15.5872 17.1681 15.5235C18.6339 13.1079 19.9396 10.5985 21.0768 8.01184L23.2442 7.33106L23.258 14.9215L20.9101 15.4911C20.6543 15.5218 20.4718 15.754 20.5025 16.0098C20.5332 16.2655 20.7655 16.448 21.0212 16.4173C21.0581 16.4218 21.0954 16.4218 21.1324 16.4173L23.258 15.8986L23.2581 21.9608Z" fill="#2D383F"/>
      <path d="M16.756 2.40353C15.2699 2.40353 14.0653 3.6082 14.0653 5.09421C14.0653 6.58022 15.2699 7.78489 16.756 7.78489C18.2409 7.78235 19.4441 6.57918 19.4466 5.09421C19.4466 3.6082 18.242 2.40353 16.756 2.40353ZM16.756 6.85867C15.7898 6.84605 15.0125 6.0605 15.01 5.09421H14.9915C14.9915 4.11971 15.7815 3.32976 16.756 3.32976C17.7305 3.32976 18.5204 4.11971 18.5204 5.09421C18.5204 6.06872 17.7305 6.85867 16.756 6.85867Z" fill="#2D383F"/>
      <path d="M10.6985 13.9674V13.9813L8.45704 13.0134C8.34294 12.9659 8.21454 12.9659 8.10044 13.0134L6.20631 13.7776C5.96845 13.8735 5.85336 14.1441 5.94929 14.3819C6.04521 14.6198 6.31578 14.7349 6.55365 14.639L8.26716 13.9489L10.328 14.8196C10.3865 14.8445 10.4496 14.8571 10.5133 14.8566C10.769 14.8587 10.978 14.6531 10.9801 14.3973C10.9816 14.2103 10.8705 14.0407 10.6985 13.9674Z" fill="#2D383F"/>
      <path d="M18.2702 16.616C18.2012 16.3929 17.9769 16.2561 17.747 16.2969L17.7516 16.2598L16.6031 16.5377L14.658 15.6948C14.4227 15.5925 14.149 15.7003 14.0467 15.9356C13.9444 16.171 14.0522 16.4447 14.2875 16.5469L16.3715 17.4732C16.4301 17.4981 16.4932 17.5107 16.5568 17.5102H16.6679L17.9646 17.1953C18.209 17.1197 18.3458 16.8604 18.2702 16.616Z" fill="#2D383F"/>
    </g>
    <defs>
      <clipPath id="clip0_5878_696">
        <rect width="25" height="25" fill="white"/>
      </clipPath>
    </defs>
  </svg>

  <svg xmlns="http://www.w3.org/2000/svg" width="26" height="25" viewBox="0 0 26 25" id="boots" fill="none">
    <g clip-path="url(#clip0_5878_954)">
      <path d="M24.9776 16.2662C25.7543 13.8339 25.1152 11.073 24.4361 9.15999C24.4316 9.08598 24.4088 9.01424 24.3695 8.95138C24.1387 8.32997 23.9256 7.81953 23.7436 7.45112C24.0786 7.31774 24.2996 6.99494 24.3029 6.63442V2.93704C24.3029 2.44674 23.9055 2.04932 23.4152 2.04932H12.5095C12.2644 2.04887 12.0653 2.24722 12.0648 2.4924C12.0648 2.50156 12.0651 2.51071 12.0656 2.51981C12.2165 5.18299 12.0212 6.98951 11.4575 8.26339C11.4463 8.27604 11.4359 8.28941 11.4265 8.30334C11.4248 8.32548 11.4248 8.34778 11.4265 8.36992C11.2113 8.83364 10.9203 9.25814 10.5654 9.62605L10.5254 9.65268C10.5254 9.65268 10.5254 9.65268 10.5254 9.68375C10.005 10.18 9.40488 10.5852 8.74996 10.8822C7.6089 11.3885 6.43788 11.8243 5.24345 12.1871L5.01708 12.2626C0.866963 13.6386 0.325451 16.1331 0.334328 17.3848C0.333219 17.4025 0.333219 17.4203 0.334328 17.438V20.6072C0.334994 20.7614 0.415611 20.9043 0.547382 20.9845C1.56449 21.6033 2.66239 22.0783 3.80977 22.396C4.04574 22.4623 4.29086 22.3248 4.35722 22.0888C4.3697 22.0444 4.3752 21.9982 4.37348 21.9521V21.85H5.02596V22.2939C5.02313 22.5138 5.18175 22.7026 5.3988 22.7377C5.78496 22.7999 6.17112 22.8487 6.5484 22.8798C6.67202 22.8902 6.79436 22.8483 6.88574 22.7644C6.97706 22.6797 7.02861 22.5605 7.02778 22.4359V21.8767H7.68025V22.5069C7.68025 22.7521 7.87899 22.9508 8.12412 22.9508C8.49696 22.9508 8.86981 22.9508 9.26928 22.8975C9.50048 22.879 9.67836 22.6856 9.67764 22.4537V21.8767H10.3301V22.2673C10.327 22.5124 10.5231 22.7137 10.7682 22.7168C10.7939 22.7172 10.8196 22.7153 10.845 22.7111C11.6598 22.5863 12.4629 22.3949 13.2463 22.1385L13.3173 22.1075C16.4243 20.332 18.3951 21.7923 18.475 21.8545C18.5524 21.9146 18.6477 21.9473 18.7457 21.9477H19.2961C19.5413 21.9477 19.74 21.7489 19.74 21.5038V20.7537H20.3747V21.4949C20.3747 21.7401 20.5735 21.9388 20.8186 21.9388H22.2478C22.4929 21.9388 22.6917 21.7401 22.6917 21.4949V20.7537H23.3486V21.4949C23.3486 21.7401 23.5473 21.9388 23.7925 21.9388H24.8888C25.1339 21.9388 25.3327 21.7401 25.3327 21.4949V16.7101C25.337 16.4958 25.1876 16.3091 24.9776 16.2662ZM14.4447 2.94592H23.393V6.6211H14.4447V2.94592ZM8.86537 11.7965L8.86981 11.8232C9.23366 12.1186 9.56944 12.447 9.87293 12.8041C9.79243 12.938 9.75093 13.0917 9.75309 13.248C9.75004 13.7162 10.1272 14.0982 10.5953 14.1012C11.0635 14.1043 11.4455 13.7272 11.4486 13.259C11.4515 12.8179 11.1156 12.4483 10.6763 12.4091C10.3956 12.0263 10.0757 11.6737 9.72202 11.3571C10.1187 11.1314 10.4918 10.8667 10.8361 10.567C11.2666 10.9709 11.6671 11.4056 12.0345 11.8676C11.8801 12.3096 12.1133 12.7931 12.5553 12.9475C12.9973 13.1019 13.4808 12.8688 13.6352 12.4268C13.7896 11.9848 13.5565 11.5013 13.1145 11.3468C13.0228 11.3148 12.9263 11.2987 12.8291 11.2994H12.7225C12.3332 10.8093 11.909 10.3479 11.4531 9.919C11.6646 9.65851 11.8518 9.37921 12.0124 9.08454C12.6995 9.44223 13.3636 9.84249 14.0009 10.283C13.9965 10.7561 14.3765 11.1431 14.8496 11.1475C15.3227 11.1519 15.7097 10.7719 15.7141 10.2988C15.7185 9.82568 15.3385 9.43863 14.8654 9.43425C14.7303 9.43297 14.5967 9.46371 14.4758 9.52396C13.8051 9.06989 13.1069 8.65782 12.3852 8.29002C12.869 7.00282 13.0776 5.29395 12.98 2.96367H13.5614V6.63885C13.5614 7.12916 13.9589 7.52658 14.4492 7.52658H22.7671C22.8825 7.76183 23.0778 8.17018 23.2909 8.70282H23.1089C20.4125 8.72229 18.2424 10.924 18.2618 13.6204C18.2729 15.1527 19.0026 16.5909 20.2327 17.5046C16.6418 18.45 11.24 19.573 6.69488 19.2801C7.53378 15.9289 6.53065 13.8649 5.87817 12.9595C6.89423 12.6262 7.89142 12.238 8.86537 11.7965ZM4.98601 13.2125C5.46538 13.7762 6.71707 15.6715 5.79828 19.1558C4.19893 19.0301 2.64558 18.5607 1.24425 17.7798C1.22832 17.6784 1.21795 17.5761 1.21318 17.4735V17.4425C1.17767 16.497 1.53276 14.4508 4.98601 13.2125ZM24.2363 21.0511V20.3098C24.2363 20.0647 24.0376 19.866 23.7925 19.866H22.2523C22.0071 19.866 21.8084 20.0647 21.8084 20.3098V21.0511H21.2624V20.3098C21.2624 20.0647 21.0637 19.866 20.8186 19.866H19.2873C19.0421 19.866 18.8434 20.0647 18.8434 20.3098V21.0333C18.2397 20.656 16.0337 19.5597 12.9045 21.3085C12.3478 21.4923 11.78 21.6405 11.2045 21.7524V21.4461C11.2045 21.201 11.0058 21.0022 10.7607 21.0022H9.22933C8.98421 21.0022 8.78547 21.201 8.78547 21.4461V22.0542H8.5591V21.4328C8.5591 21.1877 8.36036 20.9889 8.11524 20.9889H6.57504C6.32991 20.9889 6.13117 21.1877 6.13117 21.4328V21.961L5.9048 21.9299V21.4328C5.9048 21.1877 5.70606 20.9889 5.46094 20.9889H3.92074C3.69498 20.9873 3.50395 21.1554 3.47688 21.3795C2.68907 21.1201 1.93046 20.7795 1.21318 20.3631V18.7741C3.14842 19.7994 5.6518 20.1855 8.31498 20.1855C15.3901 20.1855 23.4862 17.478 24.4405 17.154L24.4449 21.0511H24.2363ZM24.0188 16.3683C23.6416 16.4926 22.7139 16.8122 21.4311 17.154C19.4452 16.1928 18.6145 13.8038 19.5756 11.8179C20.2331 10.4595 21.5999 9.58749 23.1089 9.56391C23.2839 9.56147 23.4588 9.57034 23.6327 9.59054L23.6371 9.60386C24.2896 11.4858 24.8755 14.1712 24.0188 16.3683Z" fill="#2D383F"/>
      <path d="M16.1536 3.48303C15.4402 3.48303 14.8619 4.06132 14.8619 4.77466C14.8644 5.48701 15.4412 6.06386 16.1536 6.0663C16.8669 6.0663 17.4452 5.48801 17.4452 4.77466C17.4452 4.06132 16.867 3.48303 16.1536 3.48303ZM16.1536 5.17858C15.9305 5.17858 15.7496 4.99776 15.7496 4.77466C15.7496 4.55157 15.9305 4.37075 16.1536 4.37075C16.3767 4.37075 16.5575 4.55157 16.5575 4.77466C16.5575 4.99776 16.3767 5.17858 16.1536 5.17858Z" fill="#2D383F"/>
    </g>
    <defs>
      <clipPath id="clip0_5878_954">
        <rect width="25" height="25" fill="white" transform="translate(0.333496)"/>
      </clipPath>
    </defs>
  </svg>

  <svg xmlns="http://www.w3.org/2000/svg" width="26" height="25" viewBox="0 0 26 25" id="tree" fill="none">
    <g clip-path="url(#clip0_4519_716)">
      <path d="M25.2588 18.0832L20.3519 12.4696H22.7226C22.9994 12.4689 23.2233 12.244 23.2227 11.9672C23.2224 11.857 23.1858 11.7499 23.1186 11.6626L19.179 6.48504H21.1839C21.4607 6.48466 21.6848 6.25999 21.6845 5.98319C21.6844 5.86165 21.64 5.7443 21.5598 5.65302L16.7381 0.169703C16.555 -0.0379264 16.2383 -0.0577872 16.0306 0.125345C16.0149 0.139191 16.0001 0.15404 15.9863 0.169703L11.1596 5.648C10.9741 5.8535 10.9903 6.17046 11.1958 6.35591C11.2889 6.43993 11.41 6.48598 11.5355 6.48504H13.5654L12.3525 8.06888L9.10457 4.37491C8.9215 4.16728 8.60473 4.14742 8.3971 4.33055C8.38138 4.3444 8.36659 4.35925 8.35275 4.37491L4.22773 9.06129C4.04504 9.26923 4.06553 9.58594 4.27347 9.76863C4.36475 9.84883 4.4821 9.89312 4.60364 9.89331H6.1925L2.89449 14.2088C2.73116 14.4323 2.77984 14.7458 3.00332 14.9092C3.08677 14.9703 3.18708 15.004 3.29046 15.0057H5.14496L1.07007 19.6921C0.890129 19.9024 0.914751 20.2188 1.12514 20.3988C1.2146 20.4754 1.32825 20.518 1.44598 20.5191H6.98944V24.0276C6.98944 24.5646 7.42481 25 7.9618 25H9.49051C10.0275 25.0027 10.4651 24.5697 10.4679 24.0326C10.4679 24.0309 10.4679 24.0293 10.4679 24.0276V20.5191H14.628V24.0276C14.628 24.5646 15.0634 25 15.6003 25H17.1291C17.666 25 18.1014 24.5646 18.1014 24.0276V18.9152H24.8829C25.1597 18.9148 25.3838 18.6902 25.3835 18.4134C25.3833 18.2918 25.339 18.1745 25.2588 18.0832ZM9.46545 23.9976L7.99187 24.0276L7.9618 20.5191H9.46545V23.9976ZM14.628 19.5167H2.54866L6.64861 14.8403C6.83418 14.6349 6.81808 14.318 6.61271 14.1324C6.51698 14.046 6.39161 13.9997 6.26267 14.0033H4.30793L7.60593 9.68781C7.77478 9.46847 7.73387 9.15376 7.51452 8.98492C7.42719 8.91769 7.32018 8.8811 7.20997 8.88085H5.70632L8.71362 5.45754L11.7209 8.87083L9.60579 11.6676C9.43694 11.887 9.47785 12.2017 9.6972 12.3705C9.78454 12.4377 9.89154 12.4743 10.0017 12.4746H12.3775L7.4706 18.0882C7.28791 18.2962 7.3084 18.6129 7.51634 18.7955C7.60762 18.8757 7.72497 18.92 7.84652 18.9202H14.628V19.5167ZM17.099 23.9875L15.6304 24.0276L15.6003 18.9152H17.104L17.099 23.9875ZM17.1291 17.9128H8.94919L13.8561 12.2992C14.0388 12.0912 14.0183 11.7745 13.8104 11.5918C13.7191 11.5116 13.6017 11.4673 13.4802 11.4671H11.0192L14.9788 6.28455C15.1449 6.06314 15.1001 5.74894 14.8787 5.58285C14.7933 5.51881 14.6896 5.48367 14.5829 5.4826H12.6632L16.3822 1.26236L20.0812 5.4826H18.1465C17.8697 5.48329 17.6459 5.70821 17.6465 5.98501C17.6467 6.09521 17.6833 6.20222 17.7506 6.28956L21.6851 11.4671H19.2442C18.9674 11.4675 18.7433 11.6922 18.7436 11.969C18.7437 12.0905 18.7881 12.2079 18.8683 12.2992L23.7752 17.9128H17.1291Z" fill="#2D383F"/>
    </g>
    <defs>
      <clipPath id="clip0_4519_716">
        <rect width="25" height="25" fill="white" transform="translate(0.666504)"/>
      </clipPath>
    </defs>
  </svg>

  <svg xmlns="http://www.w3.org/2000/svg" width="25" height="25" viewBox="0 0 25 25" id="mountain" fill="none">
    <g clip-path="url(#clip0_5878_728)">
      <path d="M23.4153 24.1883L15.5583 5.90781C15.4551 5.66541 15.1749 5.55265 14.9325 5.65587C14.8192 5.70417 14.7289 5.79445 14.6806 5.90781L9.93871 16.9181L7.00963 10.1583C6.90634 9.91592 6.62614 9.80316 6.3838 9.90638C6.27044 9.95468 6.18016 10.045 6.13186 10.1583L3.37928 16.5174L0.0399368 24.1836C-0.0654315 24.425 0.0448861 24.7062 0.286333 24.8116C0.347037 24.8381 0.412572 24.8517 0.478822 24.8514H22.9765C23.2399 24.8512 23.4533 24.6375 23.4531 24.374C23.4531 24.3102 23.4402 24.2471 23.4153 24.1883ZM15.1147 7.29603L18.2107 14.4947H17.1231L15.1576 12.3241C14.9804 12.1291 14.6787 12.1148 14.4837 12.292C14.4531 12.3198 14.4263 12.3514 14.4039 12.3861L13.6692 13.5215H12.4384L15.1147 7.29603ZM6.57074 11.5322L9.018 17.19H7.68226C7.52007 17.1903 7.36914 17.273 7.28154 17.4095L6.80449 18.168L5.57371 16.4315C5.48474 16.3032 5.33864 16.2266 5.18253 16.2264H4.54805L6.57074 11.5322ZM1.22779 23.8973L4.13302 17.1805H4.93446L6.42285 19.3034C6.51182 19.4316 6.65792 19.5082 6.81403 19.5085C6.97283 19.505 7.11947 19.4227 7.20522 19.289L7.93987 18.1537H9.42826L11.9137 23.8783L1.22779 23.8973ZM12.9584 23.8973L10.4587 18.125L12.0282 14.4756H13.9364C14.0986 14.4753 14.2495 14.3927 14.3371 14.2562L14.8666 13.4404L16.5554 15.3057C16.6455 15.4056 16.7738 15.4628 16.9084 15.4631H18.6162L22.2466 23.9116L12.9584 23.8973Z" fill="#2D383F"/>
      <path d="M7.61068 2.08188C7.16065 0.922592 5.85598 0.347688 4.69675 0.797784C3.83359 1.13285 3.26357 1.9622 3.26 2.88809C3.25529 2.97074 3.25529 3.05351 3.26 3.13616C2.13213 3.65996 1.6425 4.99892 2.1663 6.12678C2.52904 6.90777 3.30543 7.4135 4.16639 7.4296L4.19024 7.44869H7.52959C9.0116 7.47111 10.2311 6.28785 10.2535 4.80583C10.2759 3.32382 9.0927 2.1043 7.61068 2.08188ZM7.55821 6.5089H4.21886C3.50484 6.58266 2.86625 6.06369 2.79249 5.34967C2.71872 4.63564 3.23769 3.99706 3.95172 3.92329C4.20998 3.87123 4.37719 3.61971 4.32513 3.36139C4.32113 3.34165 4.31594 3.32215 4.3095 3.30313C4.26293 3.16967 4.23878 3.02942 4.23795 2.88809C4.23389 2.17145 4.81148 1.58724 5.52813 1.58313C6.16207 1.57949 6.70578 2.03447 6.81401 2.65911C6.85784 2.90992 7.09094 3.08207 7.34354 3.05029C7.41504 3.04558 7.48671 3.04558 7.55821 3.05029C8.51326 3.05029 9.28751 3.82454 9.28751 4.77959C9.28751 5.73465 8.51326 6.5089 7.55821 6.5089Z" fill="#2D383F"/>
      <path d="M23.6967 2.63997C23.7014 2.55733 23.7014 2.47456 23.6967 2.39191C23.6919 1.14836 22.6799 0.144172 21.4363 0.148943C20.5172 0.152521 19.6938 0.714604 19.354 1.56727C17.8795 1.59816 16.7047 2.81392 16.727 4.29057C16.7494 5.77258 17.9689 6.95584 19.451 6.93342H22.7903C24.0337 6.91016 25.0228 5.88343 24.9995 4.64006C24.9834 3.77911 24.4777 3.00271 23.6967 2.63997ZM24.056 4.94758C23.9297 5.54008 23.4103 5.96632 22.8046 5.97455H19.4653C18.5102 5.97455 17.736 5.2003 17.736 4.24525C17.736 3.29019 18.5102 2.51594 19.4653 2.51594C19.5368 2.51123 19.6084 2.51123 19.6799 2.51594C19.9213 2.54099 20.143 2.38088 20.1952 2.14384C20.3147 1.43727 20.9844 0.961417 21.6911 1.08098C22.3976 1.20054 22.8735 1.87026 22.7539 2.57688C22.7418 2.64862 22.7236 2.71922 22.6997 2.78792C22.6154 3.03754 22.7495 3.3082 22.9992 3.39246C23.0183 3.3989 23.0377 3.40415 23.0574 3.40808C23.7584 3.5574 24.2054 4.24668 24.056 4.94758Z" fill="#2D383F"/>
    </g>
    <defs>
      <clipPath id="clip0_5878_728">
        <rect width="25" height="25" fill="white"/>
      </clipPath>
    </defs>
  </svg>
</svg>
