<svg xmlns="http://www.w3.org/2000/svg">
  <style>:root svg:not(:target) { display: none }</style>

  <svg width="26" height="26" viewBox="0 0 26 26" id="burger-closed" fill="none"
    xmlns="http://www.w3.org/2000/svg">
    <path d="M0 3.54541H26V5.71534H0V3.54541Z" fill="white" />
    <path d="M0 20.2846H26V22.4545H0V20.2846Z" fill="white" />
    <path d="M0 11.915H16.64V14.0849H0V11.915Z" fill="white" />
  </svg>

  <svg width="26" height="26" viewBox="0 0 26 26" id="burger-opened" fill="none"
    xmlns="http://www.w3.org/2000/svg">
    <path
      d="M2.36328 2.36365L12.9996 13M23.636 23.6364L12.9996 13M12.9996 13L23.636 2.36365L2.36328 23.6364"
      stroke="white" stroke-width="2" />
  </svg>

  <svg width="12" height="12" viewBox="0 0 12 12" id="moon" fill="none"
    xmlns="http://www.w3.org/2000/svg">
    <g clip-path="url(#clip0_4981_204)">
      <path
        d="M11.1966 6.75379C11.0851 6.72581 10.9736 6.75379 10.876 6.82374C10.5135 7.13153 10.0953 7.38335 9.6352 7.55123C9.20301 7.71912 8.72901 7.80306 8.22712 7.80306C7.09786 7.80306 6.0662 7.34138 5.32731 6.5999C4.58841 5.85842 4.12835 4.82314 4.12835 3.68994C4.12835 3.21427 4.212 2.75259 4.35141 2.33289C4.50477 1.8852 4.72783 1.47949 5.0206 1.12973C5.14607 0.975839 5.11819 0.751995 4.96483 0.626083C4.86724 0.556132 4.75571 0.528152 4.64418 0.556132C3.45916 0.877907 2.4275 1.59141 1.6886 2.54274C0.977593 3.48008 0.54541 4.64127 0.54541 5.91438C0.54541 7.43931 1.15883 8.82434 2.16261 9.83164C3.16639 10.8389 4.54659 11.4545 6.0662 11.4545C7.34881 11.4545 8.53383 11.0068 9.48184 10.2653C10.4438 9.50986 11.1409 8.43262 11.4336 7.20148C11.5033 6.99163 11.3918 6.79576 11.1966 6.75379ZM9.0636 9.67774C8.255 10.3213 7.22334 10.713 6.09408 10.713C4.76965 10.713 3.57069 10.1674 2.70633 9.30001C1.84196 8.43262 1.29825 7.22946 1.29825 5.90039C1.29825 4.79516 1.66072 3.78787 2.28808 2.97644C2.72027 2.41683 3.26398 1.95515 3.89134 1.63338C3.82164 1.78727 3.75193 1.94116 3.69617 2.10904C3.51493 2.61269 3.43128 3.14432 3.43128 3.70393C3.43128 5.033 3.97499 6.25015 4.83936 7.11754C5.70373 7.98493 6.91663 8.53055 8.24106 8.53055C8.8266 8.53055 9.38425 8.43262 9.90008 8.23675C10.0813 8.1668 10.2626 8.09685 10.4299 8.01291C10.0953 8.65646 9.6352 9.23006 9.0636 9.67774Z"
        fill="white" />
    </g>
    <defs>
      <clipPath id="clip0_4981_204">
        <rect width="12" height="12" fill="white" />
      </clipPath>
    </defs>
  </svg>


  <svg width="12" height="12" viewBox="0 0 12 12" id="level" fill="none"
    xmlns="http://www.w3.org/2000/svg">
    <g clip-path="url(#clip0_4981_208)">
      <path d="M10.909 11.4545H8.94536V0.54541H10.909V11.4545Z" stroke="white"
        stroke-miterlimit="16" stroke-linecap="round" />
      <path d="M6.98173 11.4545V3.52062H5.01809L5.0181 11.4545H6.98173Z" stroke="white"
        stroke-miterlimit="16" stroke-linecap="round" />
      <path d="M3.05446 11.4545V6.49582H1.09082V11.4545H3.05446Z" stroke="white"
        stroke-miterlimit="16" stroke-linecap="round" />
    </g>
    <defs>
      <clipPath id="clip0_4981_208">
        <rect width="12" height="12" fill="white" />
      </clipPath>
    </defs>
  </svg>

  <svg width="9" height="12" viewBox="0 0 9 12" id="pin" fill="none"
    xmlns="http://www.w3.org/2000/svg">
    <path
      d="M4.49981 0C2.01874 0 0 1.98191 0 4.41796C0 5.05338 0.132472 5.66006 0.39354 6.2213C1.51862 8.63833 3.67571 11.1902 4.31017 11.9146C4.35771 11.9688 4.42701 12 4.49994 12C4.57287 12 4.64217 11.9688 4.6897 11.9146C5.32392 11.1903 7.48101 8.63857 8.60646 6.2213C8.86765 5.66006 9 5.05338 9 4.41796C8.99975 1.98191 6.98101 0 4.49981 0ZM4.49981 6.71267C3.21099 6.71267 2.16234 5.68315 2.16234 4.41784C2.16234 3.15241 3.21099 2.12289 4.49981 2.12289C5.78864 2.12289 6.83728 3.15241 6.83728 4.41784C6.83741 5.68315 5.78876 6.71267 4.49981 6.71267Z"
      fill="white" />
  </svg>

  <svg width="20" height="20" viewBox="0 0 20 20" id="day" fill="none"
    xmlns="http://www.w3.org/2000/svg">
    <path
      d="M13.545 6.45505C12.6455 5.55558 11.3757 4.97357 10 4.97357C8.62433 4.97357 7.35449 5.52912 6.45502 6.45505C5.55555 7.35451 4.97354 8.62435 4.97354 10C4.97354 11.3757 5.55555 12.6455 6.45502 13.545C7.35449 14.4444 8.62433 15.0265 10 15.0265C11.3757 15.0265 12.6455 14.4709 13.545 13.545C14.4444 12.6455 15.0265 11.3757 15.0265 10C15.0265 8.62435 14.4709 7.35451 13.545 6.45505ZM12.5926 12.5926C11.9312 13.254 11.0053 13.6508 10 13.6508C8.9947 13.6508 8.06878 13.254 7.4074 12.5926C6.74603 11.9312 6.3492 11.0053 6.3492 10C6.3492 8.99472 6.74603 8.0688 7.4074 7.40742C8.06878 6.74605 8.9947 6.34923 10 6.34923C11.0053 6.34923 11.9312 6.74605 12.5926 7.40742C13.254 8.0688 13.6508 8.99472 13.6508 10C13.6508 11.0053 13.254 11.9312 12.5926 12.5926Z"
      fill="white" />
    <path
      d="M19.3122 9.3122H17.2751C16.9048 9.3122 16.5873 9.62966 16.5873 10C16.5873 10.3704 16.9048 10.6879 17.2751 10.6879H19.3122C19.6825 10.6879 20 10.3704 20 10C20 9.62966 19.6825 9.3122 19.3122 9.3122Z"
      fill="white" />
    <path
      d="M9.99999 16.5873C9.62962 16.5873 9.31216 16.9048 9.31216 17.2751V19.3122C9.31216 19.6825 9.62962 20 9.99999 20C10.3704 20 10.6878 19.6825 10.6878 19.3122V17.2751C10.6878 16.9048 10.3704 16.5873 9.99999 16.5873Z"
      fill="white" />
    <path
      d="M17.0635 16.1111L15.6085 14.656C15.3704 14.3915 14.9207 14.3915 14.6561 14.656C14.3916 14.9206 14.3916 15.3439 14.6561 15.6084L16.1111 17.0634C16.3757 17.328 16.799 17.328 17.0635 17.0634C17.3281 16.7989 17.3281 16.3756 17.0635 16.1111Z"
      fill="white" />
    <path
      d="M9.99999 0C9.62962 0 9.31216 0.317459 9.31216 0.687829V2.72486C9.31216 3.09523 9.62962 3.41269 9.99999 3.41269C10.3704 3.41269 10.6878 3.09523 10.6878 2.72486V0.687829C10.6878 0.317459 10.3704 0 9.99999 0Z"
      fill="white" />
    <path
      d="M17.0899 2.93653C16.8254 2.67198 16.4021 2.67198 16.1376 2.93653L14.6825 4.39155C14.418 4.6561 14.418 5.07938 14.6825 5.34393C14.9206 5.60848 15.3704 5.60848 15.6349 5.34393L17.0899 3.88891C17.3545 3.62436 17.3545 3.20108 17.0899 2.93653Z"
      fill="white" />
    <path
      d="M2.72487 9.3122H0.687831C0.31746 9.3122 0 9.62966 0 10C0 10.3704 0.291005 10.6879 0.687831 10.6879H2.72487C3.09524 10.6879 3.4127 10.3704 3.4127 10C3.4127 9.62966 3.09524 9.3122 2.72487 9.3122Z"
      fill="white" />
    <path
      d="M5.31746 14.656C5.07937 14.3915 4.62963 14.3915 4.36508 14.656L2.91005 16.1111C2.6455 16.3756 2.6455 16.7989 2.91005 17.0634C3.1746 17.328 3.59788 17.328 3.86243 17.0634L5.31746 15.6084C5.58201 15.3439 5.58201 14.9206 5.31746 14.656Z"
      fill="white" />
    <path
      d="M5.31746 4.39155L3.86243 2.93653C3.59788 2.67198 3.1746 2.67198 2.91005 2.93653C2.6455 3.20108 2.6455 3.62436 2.91005 3.88891L4.36508 5.34393C4.62963 5.60848 5.05291 5.60848 5.31746 5.34393C5.58201 5.07938 5.58201 4.6561 5.31746 4.39155Z"
      fill="white" />
  </svg>

  <svg width="16" height="16" viewBox="0 0 16 16" id="night" fill="none"
    xmlns="http://www.w3.org/2000/svg">
    <path
      d="M15.6218 9.10563C15.4582 9.06459 15.2946 9.10563 15.1515 9.20822C14.6199 9.65964 14.0065 10.029 13.3317 10.2752C12.6978 10.5214 12.0026 10.6445 11.2665 10.6445C9.61027 10.6445 8.09716 9.96742 7.01345 8.87992C5.92974 7.79241 5.25498 6.27401 5.25498 4.61197C5.25498 3.91433 5.37766 3.2372 5.58213 2.62163C5.80705 1.96503 6.13421 1.36998 6.56361 0.857004C6.74763 0.631295 6.70674 0.302991 6.48182 0.118321C6.33869 0.0157259 6.17511 -0.0253121 6.01153 0.0157259C4.2735 0.487662 2.7604 1.53413 1.67668 2.92942C0.633869 4.30419 0 6.00726 0 7.87449C0 10.1111 0.899685 12.1424 2.3719 13.6198C3.84411 15.0972 5.8684 16 8.09716 16C9.97832 16 11.7163 15.3434 13.1068 14.2559C14.5176 13.1479 15.54 11.5679 15.9694 9.76223C16.0716 9.45445 15.9081 9.16718 15.6218 9.10563ZM12.4933 13.3941C11.3074 14.338 9.79429 14.9125 8.13806 14.9125C6.19556 14.9125 4.43708 14.1123 3.16934 12.8401C1.90161 11.5679 1.10416 9.80327 1.10416 7.85397C1.10416 6.23297 1.63579 4.75561 2.55592 3.56551C3.18979 2.74475 3.98724 2.06762 4.90737 1.59569C4.80513 1.82139 4.7029 2.0471 4.62111 2.29333C4.35529 3.03201 4.23261 3.81173 4.23261 4.63249C4.23261 6.58179 5.03006 8.36695 6.29779 9.63912C7.56553 10.9113 9.34445 11.7115 11.287 11.7115C12.1457 11.7115 12.9636 11.5679 13.7202 11.2806C13.986 11.178 14.2518 11.0754 14.4972 10.9523C14.0065 11.8962 13.3317 12.7375 12.4933 13.3941Z"
      fill="white" />
  </svg>

  <svg width="84" height="16" viewBox="0 0 84 16" id="three-stars" fill="none"
    xmlns="http://www.w3.org/2000/svg">
    <path
      d="M7.63441 11.6911L12.3525 14.3L11.1042 9.37971L15.2688 6.0708L9.77893 5.63889L7.63441 1L5.48992 5.63889L0 6.0708L4.16458 9.37971L2.91634 14.3L7.63441 11.6911Z"
      fill="white" />
    <path
      d="M24.6344 11.6911L29.3525 14.3L28.1042 9.37971L32.2688 6.0708L26.7789 5.63889L24.6344 1L22.4899 5.63889L17 6.0708L21.1646 9.37971L19.9163 14.3L24.6344 11.6911Z"
      fill="white" />
    <path
      d="M41.6344 11.6911L46.3525 14.3L45.1042 9.37971L49.2688 6.0708L43.7789 5.63889L41.6344 1L39.4899 5.63889L34 6.0708L38.1646 9.37971L36.9163 14.3L41.6344 11.6911Z"
      fill="white" />
    <path fill-rule="evenodd" clip-rule="evenodd"
      d="M58.6344 10.5484L61.8153 12.3073L60.976 8.99895L63.6574 6.86844L60.1169 6.58989L58.6344 3.38311L57.152 6.58989L53.6114 6.86844L56.2929 8.99895L55.4536 12.3073L58.6344 10.5484ZM53.9163 14.3L55.1646 9.37971L51 6.0708L56.4899 5.63889L58.6344 1L60.7789 5.63889L66.2688 6.0708L62.1042 9.37971L63.3525 14.3L58.6344 11.6911L53.9163 14.3Z"
      fill="white" />
    <path fill-rule="evenodd" clip-rule="evenodd"
      d="M75.6344 10.5484L78.8153 12.3073L77.976 8.99895L80.6574 6.86844L77.1169 6.58989L75.6344 3.38311L74.152 6.58989L70.6114 6.86844L73.2929 8.99895L72.4536 12.3073L75.6344 10.5484ZM70.9163 14.3L72.1646 9.37971L68 6.0708L73.4899 5.63889L75.6344 1L77.7789 5.63889L83.2688 6.0708L79.1042 9.37971L80.3525 14.3L75.6344 11.6911L70.9163 14.3Z"
      fill="white" />
  </svg>

  <svg width="84" height="16" viewBox="0 0 84 16" id="four-stars" fill="none"
    xmlns="http://www.w3.org/2000/svg">
    <path
      d="M7.63441 11.6911L12.3525 14.3L11.1042 9.37971L15.2688 6.0708L9.77893 5.63889L7.63441 1L5.48992 5.63889L0 6.0708L4.16458 9.37971L2.91634 14.3L7.63441 11.6911Z"
      fill="white" />
    <path
      d="M24.6344 11.6911L29.3525 14.3L28.1042 9.37971L32.2688 6.0708L26.7789 5.63889L24.6344 1L22.4899 5.63889L17 6.0708L21.1646 9.37971L19.9163 14.3L24.6344 11.6911Z"
      fill="white" />
    <path
      d="M41.6344 11.6911L46.3525 14.3L45.1042 9.37971L49.2688 6.0708L43.7789 5.63889L41.6344 1L39.4899 5.63889L34 6.0708L38.1646 9.37971L36.9163 14.3L41.6344 11.6911Z"
      fill="white" />
    <path
      d="M58.6344 11.6911L63.3525 14.3L62.1042 9.37971L66.2688 6.0708L60.7789 5.63889L58.6344 1L56.4899 5.63889L51 6.0708L55.1646 9.37971L53.9163 14.3L58.6344 11.6911Z"
      fill="white" />
    <path fill-rule="evenodd" clip-rule="evenodd"
      d="M75.6344 10.5484L78.8153 12.3073L77.976 8.99895L80.6574 6.86844L77.1169 6.58989L75.6344 3.38311L74.152 6.58989L70.6114 6.86844L73.2929 8.99895L72.4536 12.3073L75.6344 10.5484ZM70.9163 14.3L72.1646 9.37971L68 6.0708L73.4899 5.63889L75.6344 1L77.7789 5.63889L83.2688 6.0708L79.1042 9.37971L80.3525 14.3L75.6344 11.6911L70.9163 14.3Z"
      fill="white" />
  </svg>

  <svg width="84" height="16" viewBox="0 0 84 16" id="five-stars" fill="none"
    xmlns="http://www.w3.org/2000/svg">
    <path
      d="M7.63441 11.6911L12.3525 14.3L11.1042 9.37971L15.2688 6.0708L9.77893 5.63889L7.63441 1L5.48992 5.63889L0 6.0708L4.16458 9.37971L2.91634 14.3L7.63441 11.6911Z"
      fill="white" />
    <path
      d="M24.6344 11.6911L29.3525 14.3L28.1042 9.37971L32.2688 6.0708L26.7789 5.63889L24.6344 1L22.4899 5.63889L17 6.0708L21.1646 9.37971L19.9163 14.3L24.6344 11.6911Z"
      fill="white" />
    <path
      d="M41.6344 11.6911L46.3525 14.3L45.1042 9.37971L49.2688 6.0708L43.7789 5.63889L41.6344 1L39.4899 5.63889L34 6.0708L38.1646 9.37971L36.9163 14.3L41.6344 11.6911Z"
      fill="white" />
    <path
      d="M58.6344 11.6911L63.3525 14.3L62.1042 9.37971L66.2688 6.0708L60.7789 5.63889L58.6344 1L56.4899 5.63889L51 6.0708L55.1646 9.37971L53.9163 14.3L58.6344 11.6911Z"
      fill="white" />
    <path
      d="M75.6344 11.6911L80.3525 14.3L79.1042 9.37971L83.2688 6.0708L77.7789 5.63889L75.6344 1L73.4899 5.63889L68 6.0708L72.1646 9.37971L70.9163 14.3L75.6344 11.6911Z"
      fill="white" />
  </svg>

  <svg width="9" height="14" viewBox="0 0 9 14" id="show-arrow" fill="none"
    xmlns="http://www.w3.org/2000/svg">
    <path d="M1.5 13L7.5 7L1.5 1" stroke="#2D383F" stroke-width="2" />
  </svg>

</svg>
