<svg xmlns="http://www.w3.org/2000/svg"><style>:root svg:not(:target){display:none}</style><svg xmlns="http://www.w3.org/2000/svg" id="burger-closed" fill="none" viewBox="0 0 26 26"><path fill="#fff" d="M0 3.55h26v2.17h-26zm0 16.73h26v2.17h-26zm0-8.36h16.64v2.16h-16.64z"/></svg><svg xmlns="http://www.w3.org/2000/svg" id="burger-opened" fill="none" viewBox="0 0 26 26"><path stroke="#fff" stroke-width="2" d="m2.36 2.36 10.64 10.64m10.64 10.64-10.64-10.64m0 0 10.64-10.64-21.28 21.28"/></svg><svg xmlns="http://www.w3.org/2000/svg" id="moon" fill="none" viewBox="0 0 12 12"><g clip-path="url(#clip0_4981_204)"><path fill="#fff" d="M11.2 6.75a.4.4 0 0 0-.32.07 4.09 4.09 0 0 1-6.75-3.13q0-.72.22-1.36.23-.67.67-1.2a.36.36 0 0 0-.06-.5.4.4 0 0 0-.32-.07 5.55 5.55 0 0 0 1.42 10.9 5.5 5.5 0 0 0 5.37-4.26.34.34 0 0 0-.23-.45m-2.14 2.93a4.75 4.75 0 0 1-6.35-.38 4.8 4.8 0 0 1 1.18-7.67l-.2.48q-.27.75-.26 1.6a4.84 4.84 0 0 0 4.81 4.82q.88 0 1.66-.3.27-.09.53-.22-.5.99-1.37 1.67"/></g><defs><clipPath id="clip0_4981_204"><path fill="#fff" d="M0 0h12v12h-12z"/></clipPath></defs></svg><svg xmlns="http://www.w3.org/2000/svg" id="level" fill="none" viewBox="0 0 12 12"><g clip-path="url(#clip0_4981_208)"><path stroke="#fff" stroke-linecap="round" stroke-miterlimit="16" d="M10.9 11.45h-1.95v-10.9h1.96zm-3.92 0v-7.93h-1.96v7.93zm-3.93 0v-4.95h-1.96v4.95z"/></g><defs><clipPath id="clip0_4981_208"><path fill="#fff" d="M0 0h12v12h-12z"/></clipPath></defs></svg><svg xmlns="http://www.w3.org/2000/svg" id="pin" fill="none" viewBox="0 0 9 12"><path fill="#fff" d="M4.5 0a4.46 4.46 0 0 0-4.5 4.42q0 .95.4 1.8a28 28 0 0 0 3.91 5.7.25.25 0 0 0 .38 0c.63-.73 2.8-3.28 3.92-5.7q.39-.85.39-1.8a4.47 4.47 0 0 0-4.5-4.42m0 6.71a2.3 2.3 0 0 1-2.34-2.3 2.3 2.3 0 0 1 2.34-2.29 2.3 2.3 0 0 1 2.34 2.3c0 1.26-1.05 2.3-2.34 2.3"/></svg><svg xmlns="http://www.w3.org/2000/svg" id="day" fill="none" viewBox="0 0 20 20"><path fill="#fff" d="M13.55 6.46a5 5 0 0 0-3.55-1.49 5.04 5.04 0 0 0-5.03 5.03 5.04 5.04 0 0 0 8.57 3.55c.9-.9 1.49-2.17 1.49-3.55s-.56-2.65-1.48-3.54m-.96 6.13a3.7 3.7 0 0 1-2.59 1.06c-1 0-1.93-.4-2.6-1.06a3.7 3.7 0 0 1-1.05-2.59c0-1 .4-1.93 1.06-2.6a3.7 3.7 0 0 1 2.59-1.05c1 0 1.93.4 2.6 1.06a3.7 3.7 0 0 1 1.05 2.59c0 1-.4 1.93-1.06 2.6m6.72-3.29h-2.03a.7.7 0 0 0-.7.69c0 .37.32.69.7.69h2.03a.7.7 0 0 0 .69-.69.7.7 0 0 0-.69-.69m-9.31 7.28a.7.7 0 0 0-.69.69v2.03c0 .37.32.69.69.69a.7.7 0 0 0 .69-.69v-2.03a.7.7 0 0 0-.69-.7m7.06-.47-1.45-1.45c-.24-.27-.69-.27-.95 0a.67.67 0 0 0 0 .95l1.45 1.45c.27.27.69.27.95 0a.67.67 0 0 0 0-.95m-7.06-16.11a.7.7 0 0 0-.69.69v2.03c0 .38.32.7.69.7a.7.7 0 0 0 .69-.7v-2.03a.7.7 0 0 0-.69-.69m7.09 2.94a.67.67 0 0 0-.95 0l-1.46 1.45a.67.67 0 0 0 0 .95c.24.27.69.27.95 0l1.46-1.45a.67.67 0 0 0 0-.95m-14.37 6.37h-2.03a.7.7 0 0 0-.69.69c0 .37.3.69.69.69h2.03a.7.7 0 0 0 .7-.69.7.7 0 0 0-.7-.69m2.6 5.35c-.24-.27-.69-.27-.95 0l-1.46 1.45a.67.67 0 0 0 0 .95c.26.27.69.27.95 0l1.46-1.45a.67.67 0 0 0 0-.95m0-10.26-1.46-1.46a.67.67 0 0 0-.95 0 .67.67 0 0 0 0 .95l1.46 1.45c.26.27.68.27.95 0a.67.67 0 0 0 0-.95"/></svg><svg xmlns="http://www.w3.org/2000/svg" id="night" fill="none" viewBox="0 0 16 16"><path fill="#fff" d="M15.62 9.1a.6.6 0 0 0-.47.1 6 6 0 0 1-9.9-4.59q.02-1.06.33-1.99.34-.98.98-1.76a.53.53 0 0 0-.08-.74.6.6 0 0 0-.47-.1 8.14 8.14 0 0 0 2.09 15.98 8.1 8.1 0 0 0 7.87-6.24c.1-.3-.06-.6-.35-.65m-3.13 4.3a6.97 6.97 0 0 1-9.32-.56 7.05 7.05 0 0 1 1.74-11.24 7.1 7.1 0 0 0 6.38 10.11 7 7 0 0 0 3.2-.76 7.5 7.5 0 0 1-2 2.44"/></svg><svg xmlns="http://www.w3.org/2000/svg" id="three-stars" fill="none" viewBox="0 0 84 16"><path fill="#fff" d="m7.63 11.7 4.72 2.6-1.25-4.92 4.17-3.3-5.5-.44-2.14-4.64-2.14 4.64-5.49.43 4.16 3.31-1.24 4.92zm17 0 4.72 2.6-1.25-4.92 4.17-3.3-5.5-.44-2.14-4.64-2.14 4.64-5.49.43 4.16 3.31-1.24 4.92zm17 0 4.72 2.6-1.25-4.92 4.17-3.3-5.5-.44-2.14-4.64-2.14 4.64-5.49.43 4.16 3.31-1.24 4.92z"/><path fill="#fff" fill-rule="evenodd" d="m58.63 10.55 3.19 1.76-.84-3.31 2.68-2.13-3.54-.28-1.49-3.2-1.48 3.2-3.54.28 2.68 2.13-.84 3.3zm-4.71 3.75 1.24-4.92-4.16-3.3 5.49-.44 2.14-4.64 2.15 4.64 5.49.43-4.17 3.31 1.25 4.92-4.72-2.6zm21.71-3.75 3.19 1.76-.84-3.31 2.68-2.13-3.54-.28-1.49-3.2-1.48 3.2-3.54.28 2.68 2.13-.84 3.3zm-4.71 3.75 1.24-4.92-4.16-3.3 5.49-.44 2.14-4.64 2.15 4.64 5.49.43-4.17 3.31 1.25 4.92-4.72-2.6z" clip-rule="evenodd"/></svg><svg xmlns="http://www.w3.org/2000/svg" id="four-stars" fill="none" viewBox="0 0 84 16"><path fill="#fff" d="m7.63 11.7 4.72 2.6-1.25-4.92 4.17-3.3-5.5-.44-2.14-4.64-2.14 4.64-5.49.43 4.16 3.31-1.24 4.92zm17 0 4.72 2.6-1.25-4.92 4.17-3.3-5.5-.44-2.14-4.64-2.14 4.64-5.49.43 4.16 3.31-1.24 4.92zm17 0 4.72 2.6-1.25-4.92 4.17-3.3-5.5-.44-2.14-4.64-2.14 4.64-5.49.43 4.16 3.31-1.24 4.92zm17 0 4.72 2.6-1.25-4.92 4.17-3.3-5.5-.44-2.14-4.64-2.14 4.64-5.49.43 4.16 3.31-1.24 4.92z"/><path fill="#fff" fill-rule="evenodd" d="m75.63 10.55 3.19 1.76-.84-3.31 2.68-2.13-3.54-.28-1.49-3.2-1.48 3.2-3.54.28 2.68 2.13-.84 3.3zm-4.71 3.75 1.24-4.92-4.16-3.3 5.49-.44 2.14-4.64 2.15 4.64 5.49.43-4.17 3.31 1.25 4.92-4.72-2.6z" clip-rule="evenodd"/></svg><svg xmlns="http://www.w3.org/2000/svg" id="five-stars" fill="none" viewBox="0 0 84 16"><path fill="#fff" d="m7.63 11.7 4.72 2.6-1.25-4.92 4.17-3.3-5.5-.44-2.14-4.64-2.14 4.64-5.49.43 4.16 3.31-1.24 4.92zm17 0 4.72 2.6-1.25-4.92 4.17-3.3-5.5-.44-2.14-4.64-2.14 4.64-5.49.43 4.16 3.31-1.24 4.92zm17 0 4.72 2.6-1.25-4.92 4.17-3.3-5.5-.44-2.14-4.64-2.14 4.64-5.49.43 4.16 3.31-1.24 4.92zm17 0 4.72 2.6-1.25-4.92 4.17-3.3-5.5-.44-2.14-4.64-2.14 4.64-5.49.43 4.16 3.31-1.24 4.92zm17 0 4.72 2.6-1.25-4.92 4.17-3.3-5.5-.44-2.14-4.64-2.14 4.64-5.49.43 4.16 3.31-1.24 4.92z"/></svg><svg xmlns="http://www.w3.org/2000/svg" id="show-arrow" fill="none" viewBox="0 0 9 14"><path stroke="#2D383F" stroke-width="2" d="m1.5 13 6-6-6-6"/></svg><svg xmlns="http://www.w3.org/2000/svg" id="vk" fill="none" viewBox="0 0 14 8"><path fill="#2D383F" d="m13.93 7.23-.05-.1q-.36-.65-1.4-1.6v-.02l-.02-.01h-.01l-.6-.6q-.21-.3-.1-.6.1-.23.66-.95l.48-.62q1.26-1.68 1.09-2.15l-.04-.07q-.04-.07-.23-.12a1 1 0 0 0-.47-.02l-2.1.01h-.14l-.1.03-.03.02-.03.02-.08.07-.07.13a12 12 0 0 1-1.28 2.43 4 4 0 0 1-.66.74q-.12.1-.19.08l-.12-.03-.16-.18a1 1 0 0 1-.09-.28 3 3 0 0 1-.02-.65l.02-.9.02-.92q0-.22-.02-.34l-.08-.23a.4.4 0 0 0-.15-.17l-.24-.1a5 5 0 0 0-.98-.1q-1.36 0-1.75.18-.16.07-.27.22-.14.15-.04.17.44.07.62.32l.04.08q.06.1.1.34.06.24.07.53a6 6 0 0 1-.17 1.85l-.08.16-.04.04-.2.03q-.1 0-.25-.1t-.3-.28-.35-.5a9 9 0 0 1-.41-.76l-.12-.21a18 18 0 0 1-.63-1.35.5.5 0 0 0-.18-.24l-.03-.02-.12-.06-.17-.05-2 .02q-.3 0-.4.14l-.04.04-.02.12q0 .08.04.2a24 24 0 0 0 2.62 4.62 16 16 0 0 0 .72.89l.18.17q.19.18.52.42t.75.48a4 4 0 0 0 2.02.5h.84q.25 0 .39-.15l.03-.04.05-.13.03-.2q-.01-.31.04-.57t.13-.38a1 1 0 0 1 .28-.32l.06-.03q.17-.05.4.12.25.17.45.42.2.26.5.57t.51.46l.15.1q.14.07.38.15t.4.04l1.87-.03q.28 0 .43-.1.15-.08.18-.2v-.24z"/></svg><svg xmlns="http://www.w3.org/2000/svg" id="map" fill="none" viewBox="0 0 25 25"><g clip-path="url(#clip0_5878_696)"><path fill="#2D383F" d="M24.17 22.28v-15.58a.46.46 0 0 0-.6-.46v.02l-2.09.65q.33-.88.39-1.82a5.1 5.1 0 0 0-10.19 0q.04.9.36 1.74l-3.45-1.23h-.16l-.16.03-7.14 2.78a.5.5 0 0 0-.3.39v15.6a.46.46 0 0 0 .63.43l6.98-2.7 7.97 2.85q.15.05.3 0l7.14-2.24c.2-.06.33-.25.32-.46m-7.4-21.35c2.3 0 4.17 1.86 4.17 4.16 0 1.82-2.72 6.82-4.17 9.27-1.45-2.47-4.16-7.48-4.16-9.27 0-2.3 1.86-4.16 4.16-4.16m6.49 21.03-6.24 1.95v-3.53a.46.46 0 0 0-.92 0v3.5l-7.2-2.58v-2.96a.46.46 0 0 0-.92 0v2.96l-6.22 2.43v-7.16l2.28-.93a.46.46 0 1 0-.34-.86l-1.94.79v-6.45l6.22-2.41v1.39a.46.46 0 0 0 .92 0v-1.4l3.55 1.27a64 64 0 0 0 3.93 7.55.46.46 0 0 0 .79 0 65 65 0 0 0 3.9-7.5l2.17-.69.02 7.6-2.35.56a.47.47 0 1 0 .11.93h.11l2.13-.52z"/><path fill="#2D383F" d="M16.76 2.4a2.7 2.7 0 1 0 0 5.38 2.7 2.7 0 0 0 0-5.38m0 4.46a1.77 1.77 0 0 1-1.75-1.77h-.02a1.76 1.76 0 1 1 1.77 1.77m-6.06 7.11-2.24-.97a.5.5 0 0 0-.36 0l-1.9.77a.46.46 0 1 0 .35.86l1.72-.7 2.06.88.18.04a.46.46 0 0 0 .19-.9m7.57 2.66a.46.46 0 0 0-.52-.32v-.04l-1.15.28-1.94-.85a.46.46 0 0 0-.37.86l2.08.92q.09.04.19.04h.1l1.3-.31a.46.46 0 0 0 .31-.58"/></g><defs><clipPath id="clip0_5878_696"><path fill="#fff" d="M0 0h25v25h-25z"/></clipPath></defs></svg><svg xmlns="http://www.w3.org/2000/svg" id="boots" fill="none" viewBox="0 0 26 25"><g clip-path="url(#clip0_5878_954)"><path fill="#2D383F" d="M24.98 16.27c.77-2.44.14-5.2-.54-7.11a17 17 0 0 0-.7-1.7.9.9 0 0 0 .56-.83v-3.7c0-.48-.4-.88-.88-.88h-10.91a.44.44 0 0 0-.44.47c.15 2.66-.05 4.47-.61 5.74l-.03.04v.07q-.33.7-.86 1.26l-.04.02v.03q-.8.75-1.78 1.2-1.71.76-3.5 1.3l-.23.08c-4.15 1.38-4.7 3.87-4.69 5.12v3.23c0 .15.09.3.22.37a13 13 0 0 0 3.26 1.42.44.44 0 0 0 .56-.45v-.1h.66v.44c0 .22.15.41.37.45q.57.09 1.15.14a.44.44 0 0 0 .48-.44v-.56h.65v.63c0 .24.2.44.44.44q.56.01 1.15-.05c.23-.02.4-.21.4-.45v-.57h.66v.39a.44.44 0 0 0 .52.44q1.22-.19 2.4-.57l.07-.03c3.1-1.78 5.08-.32 5.16-.26q.11.1.27.1h.55c.24 0 .44-.2.44-.45v-.75h.63v.74c0 .25.2.45.45.45h1.43c.24 0 .44-.2.44-.45v-.74h.66v.74c0 .25.2.45.44.45h1.1c.24 0 .44-.2.44-.45v-4.78c0-.21-.14-.4-.35-.44m-10.54-13.32h8.95v3.67h-8.95zm-5.57 8.85v.02q.54.45 1 .98a1 1 0 0 0-.12.45.85.85 0 1 0 .93-.84q-.42-.58-.96-1.05.6-.35 1.12-.8.64.62 1.2 1.3a.85.85 0 1 0 .79-.56h-.1q-.6-.74-1.28-1.38.32-.39.56-.84 1.03.54 2 1.2a.86.86 0 1 0 .47-.76q-1-.67-2.1-1.23c.49-1.29.7-3 .6-5.33h.58v3.68c0 .49.4.89.89.89h8.32q.18.36.52 1.17h-.18a4.88 4.88 0 0 0-2.88 8.8c-3.59.95-8.99 2.07-13.54 1.78.84-3.35-.16-5.42-.81-6.32q1.52-.5 2.99-1.16m-3.88 1.41c.48.57 1.73 2.46.8 5.95q-2.42-.2-4.55-1.38l-.03-.3v-.04c-.03-.94.32-2.99 3.78-4.23m19.25 7.84v-.74c0-.25-.2-.44-.45-.44h-1.54c-.24 0-.44.2-.44.44v.74h-.55v-.74c0-.25-.2-.44-.44-.44h-1.53c-.25 0-.45.2-.45.44v.72c-.6-.37-2.8-1.47-5.94.28q-.83.27-1.7.44v-.3c0-.25-.2-.45-.44-.45h-1.53c-.25 0-.44.2-.44.45v.6h-.23v-.62c0-.24-.2-.44-.44-.44h-1.54c-.25 0-.45.2-.45.44v.53l-.23-.03v-.5c0-.24-.2-.44-.44-.44h-1.54a.44.44 0 0 0-.44.39q-1.2-.39-2.27-1.02v-1.59c1.94 1.03 4.44 1.42 7.1 1.42 7.08 0 15.18-2.71 16.13-3.04v3.9zm-.22-4.68c-.38.12-1.3.44-2.59.78a4 4 0 0 1 2.2-7.56v.01c.66 1.89 1.25 4.57.39 6.77"/><path fill="#2D383F" d="M16.15 3.48a1.3 1.3 0 1 0 0 2.59 1.3 1.3 0 0 0 0-2.59m0 1.7a.4.4 0 1 1 0-.8.4.4 0 0 1 0 .8"/></g><defs><clipPath id="clip0_5878_954"><path fill="#fff" d="M.33 0h25v25h-25z"/></clipPath></defs></svg><svg xmlns="http://www.w3.org/2000/svg" id="tree" fill="none" viewBox="0 0 26 25"><g clip-path="url(#clip0_4519_716)"><path fill="#2D383F" d="m25.26 18.08-4.9-5.61h2.36a.5.5 0 0 0 .4-.8l-3.94-5.18h2a.5.5 0 0 0 .38-.84l-4.82-5.48a.5.5 0 0 0-.75 0l-4.83 5.48a.5.5 0 0 0 .38.84h2.03l-1.22 1.58-3.25-3.7a.5.5 0 0 0-.75 0l-4.12 4.7a.5.5 0 0 0 .37.82h1.6l-3.3 4.32a.5.5 0 0 0 .39.8h1.85l-4.07 4.68a.5.5 0 0 0 .38.83h5.54v3.5c0 .54.43.98.97.98h1.53c.54 0 .98-.43.98-.97v-3.51h4.16v3.5c0 .54.43.98.97.98h1.53c.54 0 .97-.44.97-.97v-5.11h6.78a.5.5 0 0 0 .38-.84m-15.8 5.92-1.47.03-.03-3.51h1.5zm5.17-4.48h-12.08l4.1-4.68a.5.5 0 0 0-.39-.84h-1.95l3.3-4.31a.5.5 0 0 0-.4-.8h-1.5l3-3.43 3.01 3.41-2.11 2.8a.5.5 0 0 0 .4.8h2.37l-4.9 5.62a.5.5 0 0 0 .37.83h6.78zm2.47 4.47-1.47.04-.03-5.11h1.5zm.03-6.08h-8.18l4.9-5.61a.5.5 0 0 0-.37-.83h-2.46l3.96-5.19a.5.5 0 0 0-.4-.8h-1.92l3.72-4.22 3.7 4.22h-1.93a.5.5 0 0 0-.4.81l3.94 5.18h-2.45a.5.5 0 0 0-.37.83l4.9 5.61z"/></g><defs><clipPath id="clip0_4519_716"><path fill="#fff" d="M.67 0h25v25h-25z"/></clipPath></defs></svg><svg xmlns="http://www.w3.org/2000/svg" id="mountain" fill="none" viewBox="0 0 25 25"><g clip-path="url(#clip0_5878_728)"><path fill="#2D383F" d="m23.42 24.19-7.86-18.28a.48.48 0 0 0-.88 0l-4.74 11-2.93-6.75a.48.48 0 0 0-.88 0l-2.75 6.36-3.34 7.66a.48.48 0 0 0 .44.67h22.5a.48.48 0 0 0 .44-.66m-8.3-16.9 3.1 7.2h-1.1l-1.96-2.17a.48.48 0 0 0-.76.07l-.73 1.13h-1.23zm-8.55 4.24 2.45 5.66h-1.34a.5.5 0 0 0-.4.22l-.48.76-1.23-1.74a.5.5 0 0 0-.39-.2h-.63zm-5.34 12.37 2.9-6.72h.8l1.5 2.12q.14.2.38.2.25 0 .4-.21l.73-1.14h1.49l2.48 5.73zm11.73 0-2.5-5.77 1.57-3.65h1.9q.27-.01.4-.22l.54-.82 1.69 1.87q.14.15.35.15h1.7l3.64 8.45zm-5.35-21.82a2.25 2.25 0 0 0-4.35.8v.26a2.25 2.25 0 0 0 .9 4.29l.03.02h3.34a2.68 2.68 0 1 0 .08-5.37m-.05 4.43h-3.34a1.3 1.3 0 1 1-.27-2.59.5.5 0 0 0 .36-.62 1.3 1.3 0 1 1 2.5-.64c.05.25.28.42.53.39h.22a1.73 1.73 0 0 1 0 3.46m16.14-3.87v-.25a2.25 2.25 0 0 0-4.35-.82 2.68 2.68 0 0 0 .1 5.36h3.34a2.25 2.25 0 0 0 .9-4.29m.36 2.3a1.3 1.3 0 0 1-1.26 1.03h-3.33a1.73 1.73 0 1 1 0-3.45h.21a.5.5 0 0 0 .52-.38 1.3 1.3 0 1 1 2.5.65.5.5 0 0 0 .36.62c.7.15 1.15.84 1 1.54"/></g><defs><clipPath id="clip0_5878_728"><path fill="#fff" d="M0 0h25v25h-25z"/></clipPath></defs></svg></svg>